<svg xmlns="http://www.w3.org/2000/svg" width="39" height="34.500" viewBox="0 0 39 34.500" fill="none">
  <path d="M 37.5 31.5 L 36 31.5 L 36 1.5 C 36 1.102 35.842 0.721 35.561 0.439 C 35.279 0.158 34.898 0 34.5 0 L 24 0 C 23.602 0 23.221 0.158 22.939 0.439 C 22.658 0.721 22.5 1.102 22.5 1.5 L 22.5 9 L 13.5 9 C 13.102 9 12.721 9.158 12.439 9.439 C 12.158 9.721 12 10.102 12 10.5 L 12 18 L 4.5 18 C 4.102 18 3.721 18.158 3.439 18.439 C 3.158 18.721 3 19.102 3 19.5 L 3 31.5 L 1.5 31.5 C 1.102 31.5 0.721 31.658 0.439 31.939 C 0.158 32.221 0 32.602 0 33 C 0 33.398 0.158 33.779 0.439 34.061 C 0.721 34.342 1.102 34.5 1.5 34.5 L 37.5 34.5 C 37.898 34.5 38.279 34.342 38.561 34.061 C 38.842 33.779 39 33.398 39 33 C 39 32.602 38.842 32.221 38.561 31.939 C 38.279 31.658 37.898 31.5 37.5 31.5 Z M 25.5 3 L 33 3 L 33 31.5 L 25.5 31.5 L 25.5 3 Z M 15 12 L 22.5 12 L 22.5 31.5 L 15 31.5 L 15 12 Z M 6 21 L 12 21 L 12 31.5 L 6 31.5 L 6 21 Z" fill="currentColor" fill-rule="nonzero"></path>
</svg>