<svg xmlns="http://www.w3.org/2000/svg" width="35" height="27" viewBox="0 0 35 27" fill="none">
  <path d="M 1 0 C 0.448 0 0 0.448 0 1 L 0 3.89 C 0 4.264 0.209 4.608 0.543 4.779 L 17.043 13.265 C 17.33 13.412 17.67 13.412 17.957 13.265 L 34.457 4.779 C 34.791 4.608 35 4.264 35 3.89 L 35 1 C 35 0.448 34.552 0 34 0 L 1 0 Z M 1.457 9.749 C 0.792 9.407 0 9.89 0 10.639 L 0 26 C 0 26.552 0.448 27 1 27 L 34 27 C 34.552 27 35 26.552 35 26 L 35 10.639 C 35 9.89 34.208 9.407 33.543 9.749 L 17.957 17.765 C 17.67 17.912 17.33 17.912 17.043 17.765 L 1.457 9.749 Z" fill="currentColor" fill-rule="nonzero"></path>
</svg>