<svg xmlns="http://www.w3.org/2000/svg" width="18" height="15" viewBox="0 0 18 15" fill="none">
  <path d="M 1 0 C 0.448 0 0 0.448 0 1 L 0 1.912 C 0 2.275 0.197 2.609 0.514 2.786 L 8.514 7.23 C 8.816 7.398 9.184 7.398 9.486 7.23 L 17.486 2.786 C 17.803 2.609 18 2.275 18 1.912 L 18 1 C 18 0.448 17.552 0 17 0 L 1 0 Z M 1.486 5.825 C 0.819 5.455 0 5.937 0 6.7 L 0 14 C 0 14.552 0.448 15 1 15 L 17 15 C 17.552 15 18 14.552 18 14 L 18 6.7 C 18 5.937 17.181 5.455 16.514 5.825 L 9.486 9.73 C 9.184 9.898 8.816 9.898 8.514 9.73 L 1.486 5.825 Z" fill="currentColor" fill-rule="nonzero"></path>
</svg>